<svg width="26" height="26" viewBox="0 0 26 26" fill="none" xmlns="http://www.w3.org/2000/svg">
<path d="M9.96267 6.80438C10.49 6.37575 11.3549 6.37575 11.8822 6.80438L18.59 12.2737C19.1033 12.6909 19.1174 13.3652 18.6322 13.7939L12.0228 19.1831C11.7556 19.4003 11.4111 19.5089 11.0595 19.5089C10.715 19.5089 10.3635 19.4003 10.1033 19.1888C9.57595 18.7602 9.56892 18.063 10.1033 17.6286L15.7213 12.9938L9.96267 8.35887C9.4283 7.93596 9.4283 7.23872 9.96267 6.80438Z" fill="#003C8A"/>
<path d="M0.75 13C0.75 19.9741 6.4009 25.625 13.375 25.625C20.3491 25.625 26 19.9741 26 13C26 6.0259 20.3491 0.375 13.375 0.375C6.4009 0.375 0.75 6.0259 0.75 13ZM2.69231 13C2.69231 10.1472 3.80306 7.46442 5.82428 5.44928C7.83942 3.42806 10.5222 2.31731 13.375 2.31731C16.2278 2.31731 18.9106 3.42806 20.9257 5.44928C22.9469 7.46442 24.0577 10.1472 24.0577 13C24.0577 15.8528 22.9469 18.5356 20.9257 20.5507C18.9106 22.5719 16.2278 23.6827 13.375 23.6827C10.5222 23.6827 7.83942 22.5719 5.82428 20.5507C3.80306 18.5356 2.69231 15.8528 2.69231 13Z" fill="#003C8A"/>
</svg>
