<svg width="23" height="17" viewBox="0 0 23 17" fill="none" xmlns="http://www.w3.org/2000/svg">
<path d="M16.409 8.73808C17.9706 8.73808 19.2268 7.49194 19.2268 5.95652C19.2268 4.4211 17.9706 3.17496 16.409 3.17496C14.8473 3.17496 13.5798 4.4211 13.5798 5.95652C13.5798 7.49194 14.8473 8.73808 16.409 8.73808ZM7.92157 7.62546C9.80012 7.62546 11.3052 6.13454 11.3052 4.28758C11.3052 2.44062 9.80012 0.949707 7.92157 0.949707C6.04303 0.949707 4.52661 2.44062 4.52661 4.28758C4.52661 6.13454 6.04303 7.62546 7.92157 7.62546ZM16.409 10.9633C14.338 10.9633 10.1849 11.9869 10.1849 14.0231V16.5265H22.6331V14.0231C22.6331 11.9869 18.4799 10.9633 16.409 10.9633ZM7.92157 9.85071C5.28482 9.85071 0 11.1525 0 13.7449V16.5265H7.92157V14.0231C7.92157 13.0773 8.29502 11.4195 10.6036 10.1622C9.61905 9.96197 8.66846 9.85071 7.92157 9.85071Z" fill="white"/>
</svg>
