<svg width="27" height="27" viewBox="0 0 27 27" fill="none" xmlns="http://www.w3.org/2000/svg">
<path d="M0 13.5C0 20.9575 6.04255 27 13.5 27C20.9575 27 27 20.9575 27 13.5C27 6.04255 20.9575 0 13.5 0C6.04255 0 0 6.04255 0 13.5ZM15.869 13.5L10.5534 8.2363C10.0666 7.74952 10.0666 6.9512 10.5534 6.46442C11.0401 5.97764 11.8385 5.97764 12.3252 6.46442L18.5171 12.6757C18.9909 13.1495 19.0038 13.9154 18.556 14.4022L12.455 20.5226C12.2084 20.7692 11.8904 20.8925 11.5659 20.8925C11.2478 20.8925 10.9233 20.7692 10.6832 20.5291C10.1964 20.0423 10.1899 19.2505 10.6832 18.7572L15.869 13.5Z" fill="white"/>
</svg>
